<?xml version="1.0" encoding="utf-8"?>
<!-- Generator: Adobe Illustrator 16.0.0, SVG Export Plug-In . SVG Version: 6.00 Build 0)  -->
<!DOCTYPE svg PUBLIC "-//W3C//DTD SVG 1.1//EN" "http://www.w3.org/Graphics/SVG/1.1/DTD/svg11.dtd">
<svg version="1.1" id="Layer_1" xmlns="http://www.w3.org/2000/svg" xmlns:xlink="http://www.w3.org/1999/xlink" x="0px" y="0px"
	 width="31px" height="31px" viewBox="0 0 31 31" enable-background="new 0 0 31 31" xml:space="preserve">
<path fill="#FFFFFF" d="M31,30.293L20.823,20.115c1.967-2.138,3.178-4.981,3.178-8.115c0-6.628-5.373-12-12-12C5.373,0,0,5.373,0,12
	c0,6.627,5.373,12,12,12c3.134,0,5.978-1.211,8.116-3.179L30.293,31L31,30.293z M1.001,12.001c0-6.075,4.925-11,11-11
	c6.076,0,11,4.925,11,11C23,18.075,18.076,23,12,23C5.926,23,1.001,18.075,1.001,12.001z"/>
</svg>
